<svg width="62" height="62" viewBox="0 0 62 62" fill="none" xmlns="http://www.w3.org/2000/svg">
<g filter="url(#filter0_d)">
<circle cx="31" cy="30" r="21" fill="white"/>
<circle cx="31" cy="30" r="20.5" stroke="#F79292"/>
</g>
<path d="M23.12 33.08C22.62 33.08 22.14 33.0067 21.68 32.86C21.2267 32.7067 20.8633 32.5033 20.59 32.25C20.49 32.1567 20.44 32.04 20.44 31.9C20.44 31.8067 20.4667 31.7267 20.52 31.66C20.5733 31.5867 20.6367 31.55 20.71 31.55C20.7967 31.55 20.89 31.5867 20.99 31.66C21.61 32.14 22.3167 32.38 23.11 32.38C23.6833 32.38 24.1233 32.27 24.43 32.05C24.7367 31.83 24.89 31.5167 24.89 31.11C24.89 30.8767 24.8167 30.69 24.67 30.55C24.5233 30.4033 24.33 30.2867 24.09 30.2C23.85 30.1133 23.5267 30.0233 23.12 29.93C22.5733 29.8033 22.1233 29.67 21.77 29.53C21.4233 29.39 21.14 29.19 20.92 28.93C20.7067 28.67 20.6 28.33 20.6 27.91C20.6 27.51 20.7067 27.1567 20.92 26.85C21.14 26.5367 21.4433 26.2967 21.83 26.13C22.2233 25.9567 22.67 25.87 23.17 25.87C23.6367 25.87 24.07 25.9433 24.47 26.09C24.8767 26.23 25.2167 26.4333 25.49 26.7C25.5967 26.8067 25.65 26.9233 25.65 27.05C25.65 27.1433 25.6233 27.2267 25.57 27.3C25.5167 27.3667 25.4533 27.4 25.38 27.4C25.3067 27.4 25.21 27.3633 25.09 27.29C24.7633 27.0233 24.46 26.8367 24.18 26.73C23.9 26.6233 23.5633 26.57 23.17 26.57C22.6167 26.57 22.1867 26.6867 21.88 26.92C21.5733 27.1467 21.42 27.4667 21.42 27.88C21.42 28.2333 21.5533 28.5 21.82 28.68C22.0933 28.8533 22.51 29.0067 23.07 29.14C23.6767 29.2867 24.1533 29.4233 24.5 29.55C24.8467 29.67 25.1333 29.8533 25.36 30.1C25.5933 30.3467 25.71 30.6767 25.71 31.09C25.71 31.4833 25.6 31.83 25.38 32.13C25.1667 32.43 24.8633 32.6633 24.47 32.83C24.0767 32.9967 23.6267 33.08 23.12 33.08ZM29.1426 32.41C29.3759 32.43 29.4926 32.5367 29.4926 32.73C29.4926 32.8433 29.4492 32.93 29.3626 32.99C29.2826 33.0433 29.1592 33.0633 28.9926 33.05L28.7226 33.03C28.1892 32.99 27.7959 32.83 27.5426 32.55C27.2892 32.27 27.1626 31.8467 27.1626 31.28V28.77H26.4926C26.3792 28.77 26.2892 28.7433 26.2226 28.69C26.1626 28.63 26.1326 28.5533 26.1326 28.46C26.1326 28.36 26.1626 28.28 26.2226 28.22C26.2892 28.16 26.3792 28.13 26.4926 28.13H27.1626V27C27.1626 26.8733 27.1992 26.7767 27.2726 26.71C27.3459 26.6367 27.4459 26.6 27.5726 26.6C27.6926 26.6 27.7892 26.6367 27.8626 26.71C27.9359 26.7767 27.9726 26.8733 27.9726 27V28.13H29.0826C29.1892 28.13 29.2726 28.16 29.3326 28.22C29.3992 28.28 29.4326 28.36 29.4326 28.46C29.4326 28.5533 29.3992 28.63 29.3326 28.69C29.2726 28.7433 29.1892 28.77 29.0826 28.77H27.9726V31.32C27.9726 31.6867 28.0459 31.9533 28.1926 32.12C28.3459 32.28 28.5726 32.37 28.8726 32.39L29.1426 32.41ZM32.281 28.01C33.501 28.01 34.111 28.65 34.111 29.93V32.65C34.111 32.77 34.0743 32.8667 34.001 32.94C33.9343 33.0133 33.841 33.05 33.721 33.05C33.601 33.05 33.5043 33.0133 33.431 32.94C33.3577 32.8667 33.321 32.77 33.321 32.65V32.17C33.1943 32.4567 33.001 32.68 32.741 32.84C32.481 32.9933 32.181 33.07 31.841 33.07C31.5277 33.07 31.2377 33.0067 30.971 32.88C30.711 32.7533 30.5043 32.5767 30.351 32.35C30.1977 32.1233 30.121 31.8733 30.121 31.6C30.121 31.2333 30.2143 30.95 30.401 30.75C30.5877 30.5433 30.8943 30.3967 31.321 30.31C31.7477 30.2167 32.341 30.17 33.101 30.17H33.321V29.84C33.321 29.44 33.2377 29.1467 33.071 28.96C32.911 28.7733 32.6477 28.68 32.281 28.68C31.8277 28.68 31.3677 28.8033 30.901 29.05C30.721 29.1633 30.5943 29.22 30.521 29.22C30.441 29.22 30.3743 29.19 30.321 29.13C30.2677 29.07 30.241 28.9933 30.241 28.9C30.241 28.8067 30.2677 28.7267 30.321 28.66C30.381 28.5867 30.4743 28.5133 30.601 28.44C30.8343 28.3067 31.0977 28.2033 31.391 28.13C31.691 28.05 31.9877 28.01 32.281 28.01ZM31.951 32.43C32.351 32.43 32.6777 32.2967 32.931 32.03C33.191 31.7567 33.321 31.4067 33.321 30.98V30.69H33.141C32.5543 30.69 32.1077 30.7167 31.801 30.77C31.4943 30.8167 31.2743 30.9 31.141 31.02C31.0143 31.1333 30.951 31.3033 30.951 31.53C30.951 31.79 31.0443 32.0067 31.231 32.18C31.4243 32.3467 31.6643 32.43 31.951 32.43ZM38.0038 28.03C38.2838 28.01 38.4238 28.1233 38.4238 28.37C38.4238 28.4767 38.3938 28.5633 38.3338 28.63C38.2738 28.69 38.1704 28.7267 38.0238 28.74L37.7238 28.77C37.2771 28.81 36.9438 28.97 36.7238 29.25C36.5104 29.5233 36.4038 29.8467 36.4038 30.22V32.65C36.4038 32.7833 36.3671 32.8833 36.2938 32.95C36.2204 33.0167 36.1238 33.05 36.0038 33.05C35.8838 33.05 35.7838 33.0167 35.7038 32.95C35.6304 32.8767 35.5938 32.7767 35.5938 32.65V28.43C35.5938 28.3033 35.6338 28.2067 35.7138 28.14C35.7938 28.0667 35.8904 28.03 36.0038 28.03C36.1104 28.03 36.2004 28.0667 36.2738 28.14C36.3471 28.2067 36.3838 28.3 36.3838 28.42V28.98C36.5238 28.6867 36.7204 28.4633 36.9738 28.31C37.2338 28.1567 37.5304 28.0667 37.8638 28.04L38.0038 28.03ZM41.7598 32.41C41.9931 32.43 42.1098 32.5367 42.1098 32.73C42.1098 32.8433 42.0664 32.93 41.9798 32.99C41.8998 33.0433 41.7764 33.0633 41.6098 33.05L41.3398 33.03C40.8064 32.99 40.4131 32.83 40.1598 32.55C39.9064 32.27 39.7798 31.8467 39.7798 31.28V28.77H39.1098C38.9964 28.77 38.9064 28.7433 38.8398 28.69C38.7798 28.63 38.7498 28.5533 38.7498 28.46C38.7498 28.36 38.7798 28.28 38.8398 28.22C38.9064 28.16 38.9964 28.13 39.1098 28.13H39.7798V27C39.7798 26.8733 39.8164 26.7767 39.8898 26.71C39.9631 26.6367 40.0631 26.6 40.1898 26.6C40.3098 26.6 40.4064 26.6367 40.4798 26.71C40.5531 26.7767 40.5898 26.8733 40.5898 27V28.13H41.6998C41.8064 28.13 41.8898 28.16 41.9498 28.22C42.0164 28.28 42.0498 28.36 42.0498 28.46C42.0498 28.5533 42.0164 28.63 41.9498 28.69C41.8898 28.7433 41.8064 28.77 41.6998 28.77H40.5898V31.32C40.5898 31.6867 40.6631 31.9533 40.8098 32.12C40.9631 32.28 41.1898 32.37 41.4898 32.39L41.7598 32.41Z" fill="#EB5757"/>
<defs>
<filter id="filter0_d" x="0" y="0" width="62" height="62" filterUnits="userSpaceOnUse" color-interpolation-filters="sRGB">
<feFlood flood-opacity="0" result="BackgroundImageFix"/>
<feColorMatrix in="SourceAlpha" type="matrix" values="0 0 0 0 0 0 0 0 0 0 0 0 0 0 0 0 0 0 127 0"/>
<feOffset dy="1"/>
<feGaussianBlur stdDeviation="5"/>
<feColorMatrix type="matrix" values="0 0 0 0 0.891667 0 0 0 0 0.360382 0 0 0 0 0.360382 0 0 0 0.2 0"/>
<feBlend mode="normal" in2="BackgroundImageFix" result="effect1_dropShadow"/>
<feBlend mode="normal" in="SourceGraphic" in2="effect1_dropShadow" result="shape"/>
</filter>
</defs>
</svg>
