<svg width="20" height="20" viewBox="0 0 20 20" fill="none" xmlns="http://www.w3.org/2000/svg">
<path opacity="0.1" d="M1.47023e-06 10C1.22882e-06 15.5228 4.47715 20 10 20C15.5228 20 20 15.5228 20 10C20 4.47715 15.5228 -1.95703e-07 10 -4.37114e-07C4.47715 -6.78525e-07 1.71165e-06 4.47715 1.47023e-06 10Z" fill="#6333EA"/>
<path opacity="0.3" d="M2 10C2 14.4183 5.58172 18 10 18C14.4183 18 18 14.4183 18 10C18 5.58172 14.4183 2 10 2C5.58172 2 2 5.58172 2 10Z" fill="#6333EA"/>
<path opacity="0.5" d="M4 10C4 13.3137 6.68629 16 10 16C13.3137 16 16 13.3137 16 10C16 6.68629 13.3137 4 10 4C6.68629 4 4 6.68629 4 10Z" fill="#6333EA"/>
<path d="M6 10C6 12.2091 7.79086 14 10 14C12.2091 14 14 12.2091 14 10C14 7.79086 12.2091 6 10 6C7.79086 6 6 7.79086 6 10Z" fill="white"/>
</svg>
