<svg width="128" height="921" viewBox="0 0 128 921" fill="none" xmlns="http://www.w3.org/2000/svg">
<path fill-rule="evenodd" clip-rule="evenodd" d="M64.8454 67.4756C64.5828 67.3903 64.4391 67.1082 64.5245 66.8456C64.6099 66.5829 64.892 66.4393 65.1546 66.5246C66.8383 67.072 68.4825 67.621 70.088 68.1716C70.3492 68.2612 70.4883 68.5456 70.3987 68.8068C70.3091 69.068 70.0248 69.2071 69.7636 69.1175C68.1633 68.5687 66.5242 68.0214 64.8454 67.4756ZM74.4479 70.7683C74.1883 70.6742 74.0541 70.3875 74.1481 70.1279C74.2422 69.8682 74.5289 69.734 74.7885 69.828C78.1252 71.0367 81.2802 72.2523 84.2601 73.4738C84.5156 73.5786 84.6378 73.8706 84.5331 74.1261C84.4283 74.3816 84.1363 74.5038 83.8808 74.3991C80.9146 73.1832 77.7726 71.9725 74.4479 70.7683ZM88.6318 76.4166C88.379 76.3053 88.2643 76.0103 88.3756 75.7575C88.4869 75.5048 88.7819 75.3901 89.0347 75.5014C92.3197 76.9476 95.3672 78.4013 98.1881 79.8606C98.4333 79.9875 98.5293 80.2892 98.4024 80.5345C98.2755 80.7797 97.9739 80.8757 97.7286 80.7488C94.928 79.2999 91.8994 77.8552 88.6318 76.4166ZM102.193 83.1704C101.953 83.0337 101.869 82.7284 102.006 82.4884C102.143 82.2485 102.448 82.1648 102.688 82.3015C105.857 84.1069 108.693 85.9201 111.214 87.7377C111.438 87.8992 111.489 88.2117 111.327 88.4357C111.166 88.6597 110.853 88.7104 110.629 88.5489C108.14 86.7546 105.335 84.9605 102.193 83.1704ZM114.631 91.6583C114.42 91.4805 114.392 91.1651 114.57 90.9538C114.748 90.7425 115.063 90.7154 115.275 90.8932C118.175 93.3342 120.535 95.782 122.399 98.2293C122.567 98.449 122.524 98.7627 122.305 98.9301C122.085 99.0974 121.771 99.055 121.604 98.8353C119.791 96.4554 117.485 94.0598 114.631 91.6583ZM124.297 103.008C124.168 102.764 124.261 102.462 124.505 102.332C124.748 102.203 125.051 102.295 125.181 102.539C126.945 105.863 127.841 109.172 127.983 112.443C127.995 112.719 127.781 112.953 127.505 112.965C127.23 112.977 126.996 112.763 126.984 112.487C126.848 109.374 125.997 106.209 124.297 103.008ZM126.613 117.41C126.665 117.139 126.927 116.961 127.198 117.014C127.469 117.066 127.647 117.328 127.595 117.599C126.966 120.857 125.635 124.043 123.746 127.132C123.602 127.368 123.294 127.442 123.058 127.298C122.823 127.154 122.749 126.846 122.893 126.61C124.732 123.603 126.011 120.529 126.613 117.41ZM120.024 130.698C120.196 130.482 120.51 130.445 120.727 130.616C120.943 130.788 120.98 131.102 120.808 131.319C118.794 133.864 116.419 136.338 113.768 138.727C113.563 138.912 113.247 138.896 113.062 138.691C112.877 138.486 112.894 138.169 113.099 137.985C115.716 135.626 118.05 133.192 120.024 130.698ZM109.246 141.246C109.462 141.074 109.776 141.109 109.949 141.325C110.121 141.541 110.085 141.855 109.869 142.028C107.285 144.089 104.509 146.079 101.597 147.99C101.366 148.141 101.056 148.077 100.905 147.846C100.753 147.615 100.818 147.305 101.049 147.153C103.938 145.258 106.689 143.285 109.246 141.246ZM96.7696 149.847C97.0059 149.704 97.3133 149.78 97.4561 150.016C97.599 150.252 97.5232 150.56 97.2868 150.703C94.4098 152.442 91.4348 154.105 88.4109 155.684C88.1661 155.812 87.864 155.717 87.7362 155.472C87.6084 155.227 87.7032 154.925 87.948 154.797C90.9553 153.227 93.9119 151.574 96.7696 149.847ZM83.4303 157.077C83.6785 156.956 83.9778 157.059 84.0989 157.308C84.22 157.556 84.117 157.855 83.8688 157.976C80.7936 159.477 77.6929 160.888 74.6161 162.202C74.3621 162.311 74.0683 162.193 73.9599 161.939C73.8514 161.685 73.9693 161.391 74.2233 161.283C77.2855 159.975 80.371 158.57 83.4303 157.077ZM69.5459 163.214C69.8024 163.112 70.0932 163.237 70.1956 163.494C70.2979 163.75 70.1729 164.041 69.9164 164.143C68.3198 164.78 66.7365 165.389 65.1739 165.969C64.915 166.065 64.6273 165.933 64.5312 165.674C64.4352 165.415 64.5672 165.127 64.8261 165.031C66.3811 164.454 67.9568 163.848 69.5459 163.214ZM63.6583 166.476C63.9209 166.39 64.0646 166.108 63.9792 165.846C63.8939 165.583 63.6118 165.439 63.3491 165.525C61.6654 166.072 60.0212 166.621 58.4157 167.172C58.1545 167.261 58.0154 167.546 58.105 167.807C58.1946 168.068 58.4789 168.207 58.7402 168.118C60.3404 167.569 61.9795 167.021 63.6583 166.476ZM54.0558 169.768C54.3154 169.674 54.4496 169.387 54.3556 169.128C54.2616 168.868 53.9748 168.734 53.7152 168.828C50.3785 170.037 47.2235 171.252 44.2437 172.474C43.9881 172.579 43.8659 172.871 43.9707 173.126C44.0754 173.382 44.3674 173.504 44.6229 173.399C47.5891 172.183 50.7311 170.973 54.0558 169.768ZM39.872 175.417C40.1247 175.305 40.2394 175.01 40.1281 174.758C40.0168 174.505 39.7218 174.39 39.469 174.501C36.184 175.948 33.1365 177.401 30.3156 178.861C30.0704 178.988 29.9744 179.289 30.1013 179.534C30.2282 179.78 30.5299 179.876 30.7751 179.749C33.5757 178.3 36.6043 176.855 39.872 175.417ZM26.3109 182.17C26.5508 182.034 26.6345 181.728 26.4978 181.488C26.3611 181.248 26.0558 181.165 25.8159 181.301C22.6464 183.107 19.8109 184.92 17.2897 186.738C17.0657 186.899 17.015 187.212 17.1765 187.436C17.338 187.66 17.6505 187.71 17.8745 187.549C20.3634 185.755 23.1684 183.96 26.3109 182.17ZM13.8729 190.658C14.0842 190.48 14.1113 190.165 13.9335 189.954C13.7557 189.742 13.4403 189.715 13.229 189.893C10.3284 192.334 7.96858 194.782 6.10428 197.229C5.93694 197.449 5.97937 197.763 6.19903 197.93C6.4187 198.097 6.73243 198.055 6.89976 197.835C8.71271 195.455 11.0191 193.06 13.8729 190.658ZM4.20626 202.008C4.33577 201.764 4.24305 201.462 3.99916 201.332C3.75527 201.203 3.45257 201.295 3.32306 201.539C1.55837 204.863 0.663114 208.172 0.520509 211.443C0.508481 211.719 0.722376 211.953 0.998257 211.965C1.27414 211.977 1.50753 211.763 1.51956 211.487C1.65527 208.374 2.50681 205.209 4.20626 202.008ZM1.89105 216.41C1.83876 216.139 1.57657 215.961 1.30542 216.014C1.03428 216.066 0.856852 216.328 0.909137 216.599C1.53741 219.857 2.86844 223.043 4.75793 226.132C4.90201 226.368 5.20978 226.442 5.44536 226.298C5.68093 226.154 5.75509 225.846 5.61101 225.61C3.77142 222.603 2.49247 219.529 1.89105 216.41ZM8.47955 229.698C8.30818 229.482 7.99372 229.445 7.77719 229.616C7.56066 229.788 7.52405 230.102 7.69542 230.319C9.71009 232.864 12.0844 235.338 14.7353 237.727C14.9404 237.912 15.2566 237.896 15.4415 237.691C15.6263 237.486 15.6099 237.169 15.4048 236.985C12.7874 234.626 10.4534 232.192 8.47955 229.698ZM19.2578 240.246C19.0419 240.074 18.7273 240.109 18.5551 240.325C18.3829 240.541 18.4183 240.855 18.6342 241.028C21.2183 243.089 23.9948 245.079 26.9064 246.99C27.1373 247.141 27.4472 247.077 27.5987 246.846C27.7502 246.615 27.6859 246.305 27.455 246.153C24.5656 244.258 21.8145 242.285 19.2578 240.246ZM31.7341 248.847C31.4978 248.704 31.1904 248.78 31.0476 249.016C30.9048 249.252 30.9805 249.56 31.2169 249.703C34.0939 251.442 37.0689 253.105 40.0928 254.684C40.3376 254.812 40.6397 254.717 40.7675 254.472C40.8953 254.227 40.8005 253.925 40.5557 253.797C37.5485 252.227 34.5918 250.574 31.7341 248.847ZM45.0734 256.077C44.8252 255.956 44.5259 256.059 44.4048 256.308C44.2837 256.556 44.3867 256.855 44.6349 256.976C47.7101 258.477 50.8108 259.888 53.8876 261.202C54.1416 261.311 54.4354 261.193 54.5439 260.939C54.6523 260.685 54.5344 260.391 54.2805 260.283C51.2182 258.975 48.1327 257.57 45.0734 256.077ZM58.9578 262.214C58.7013 262.112 58.4105 262.237 58.3081 262.494C58.2058 262.75 58.3308 263.041 58.5873 263.143C60.184 263.78 61.7672 264.389 63.3298 264.969C63.5887 265.065 63.8764 264.933 63.9725 264.674C64.0686 264.415 63.9365 264.127 63.6776 264.031C62.1226 263.454 60.5469 262.848 58.9578 262.214ZM63.6583 364.476C63.9209 364.39 64.0646 364.108 63.9792 363.846C63.8939 363.583 63.6118 363.439 63.3491 363.525C61.6654 364.072 60.0212 364.621 58.4157 365.172C58.1545 365.261 58.0154 365.546 58.105 365.807C58.1946 366.068 58.4789 366.207 58.7402 366.118C60.3404 365.569 61.9795 365.021 63.6583 364.476ZM54.0558 367.768C54.3154 367.674 54.4496 367.388 54.3556 367.128C54.2616 366.868 53.9748 366.734 53.7152 366.828C50.3785 368.037 47.2235 369.252 44.2437 370.474C43.9881 370.579 43.8659 370.871 43.9707 371.126C44.0754 371.382 44.3674 371.504 44.6229 371.399C47.5891 370.183 50.7311 368.973 54.0558 367.768ZM39.872 373.417C40.1247 373.305 40.2394 373.01 40.1281 372.758C40.0168 372.505 39.7218 372.39 39.469 372.501C36.184 373.948 33.1365 375.401 30.3156 376.861C30.0704 376.988 29.9744 377.289 30.1013 377.534C30.2282 377.78 30.5299 377.876 30.7751 377.749C33.5757 376.3 36.6043 374.855 39.872 373.417ZM26.3109 380.17C26.5508 380.034 26.6345 379.728 26.4978 379.488C26.3611 379.249 26.0558 379.165 25.8159 379.301C22.6464 381.107 19.8109 382.92 17.2897 384.738C17.0657 384.899 17.015 385.212 17.1765 385.436C17.338 385.66 17.6505 385.71 17.8745 385.549C20.3634 383.755 23.1684 381.96 26.3109 380.17ZM13.8729 388.658C14.0842 388.48 14.1113 388.165 13.9335 387.954C13.7557 387.743 13.4403 387.715 13.229 387.893C10.3284 390.334 7.96858 392.782 6.10428 395.229C5.93694 395.449 5.97937 395.763 6.19903 395.93C6.4187 396.097 6.73243 396.055 6.89976 395.835C8.71271 393.455 11.0191 391.06 13.8729 388.658ZM4.20626 400.008C4.33577 399.764 4.24305 399.462 3.99916 399.332C3.75527 399.203 3.45257 399.295 3.32306 399.539C1.55837 402.863 0.663114 406.172 0.520509 409.443C0.508481 409.719 0.722376 409.953 0.998257 409.965C1.27414 409.977 1.50753 409.763 1.51956 409.487C1.65527 406.374 2.50681 403.209 4.20626 400.008ZM1.89105 414.41C1.83876 414.139 1.57657 413.961 1.30542 414.014C1.03428 414.066 0.856852 414.328 0.909137 414.599C1.53741 417.857 2.86844 421.043 4.75793 424.132C4.90201 424.368 5.20978 424.442 5.44536 424.298C5.68093 424.154 5.75509 423.846 5.61101 423.61C3.77142 420.603 2.49247 417.529 1.89105 414.41ZM8.47955 427.698C8.30818 427.482 7.99372 427.445 7.77719 427.616C7.56066 427.788 7.52405 428.102 7.69542 428.319C9.71009 430.864 12.0844 433.338 14.7353 435.727C14.9404 435.912 15.2566 435.896 15.4415 435.691C15.6263 435.486 15.6099 435.169 15.4048 434.985C12.7874 432.626 10.4534 430.192 8.47955 427.698ZM19.2578 438.246C19.0419 438.074 18.7273 438.109 18.5551 438.325C18.3829 438.541 18.4183 438.855 18.6342 439.028C21.2183 441.089 23.9948 443.079 26.9064 444.99C27.1373 445.141 27.4472 445.077 27.5987 444.846C27.7502 444.615 27.6859 444.305 27.455 444.153C24.5656 442.258 21.8145 440.285 19.2578 438.246ZM31.7341 446.847C31.4978 446.704 31.1904 446.78 31.0476 447.016C30.9048 447.252 30.9805 447.56 31.2169 447.703C34.0939 449.442 37.0689 451.105 40.0928 452.684C40.3376 452.812 40.6397 452.717 40.7675 452.472C40.8953 452.227 40.8005 451.925 40.5557 451.797C37.5485 450.227 34.5918 448.574 31.7341 446.847ZM45.0734 454.077C44.8252 453.956 44.5259 454.059 44.4048 454.308C44.2837 454.556 44.3867 454.855 44.6349 454.976C47.7101 456.477 50.8108 457.888 53.8876 459.202C54.1416 459.311 54.4354 459.193 54.5439 458.939C54.6523 458.685 54.5344 458.391 54.2805 458.283C51.2182 456.975 48.1327 455.57 45.0734 454.077ZM58.9578 460.214C58.7013 460.112 58.4105 460.237 58.3081 460.494C58.2058 460.75 58.3308 461.041 58.5873 461.143C60.184 461.78 61.7672 462.389 63.3298 462.969C63.5887 463.065 63.8764 462.933 63.9725 462.674C64.0686 462.415 63.9365 462.127 63.6776 462.031C62.1226 461.454 60.5469 460.848 58.9578 460.214ZM63.9792 759.846C64.0646 760.108 63.9209 760.39 63.6583 760.476C61.9795 761.021 60.3404 761.569 58.7402 762.117C58.4789 762.207 58.1946 762.068 58.105 761.807C58.0154 761.546 58.1545 761.261 58.4157 761.172C60.0212 760.621 61.6654 760.072 63.3491 759.525C63.6118 759.439 63.8939 759.583 63.9792 759.846ZM54.3556 763.128C54.4496 763.388 54.3154 763.674 54.0558 763.768C50.7311 764.973 47.5891 766.183 44.6229 767.399C44.3674 767.504 44.0754 767.382 43.9707 767.126C43.8659 766.871 43.9881 766.579 44.2437 766.474C47.2235 765.252 50.3785 764.037 53.7152 762.828C53.9748 762.734 54.2616 762.868 54.3556 763.128ZM40.1281 768.758C40.2394 769.01 40.1247 769.305 39.872 769.417C36.6043 770.855 33.5757 772.3 30.7751 773.749C30.5299 773.876 30.2282 773.78 30.1013 773.534C29.9744 773.289 30.0704 772.987 30.3156 772.861C33.1365 771.401 36.184 769.948 39.469 768.501C39.7218 768.39 40.0168 768.505 40.1281 768.758ZM26.4978 775.488C26.6345 775.728 26.5508 776.034 26.3109 776.17C23.1684 777.96 20.3634 779.755 17.8745 781.549C17.6505 781.71 17.338 781.66 17.1765 781.436C17.015 781.212 17.0657 780.899 17.2897 780.738C19.8109 778.92 22.6464 777.107 25.8159 775.301C26.0558 775.165 26.3611 775.248 26.4978 775.488ZM13.9335 783.954C14.1113 784.165 14.0842 784.48 13.8729 784.658C11.0191 787.06 8.71271 789.455 6.89976 791.835C6.73243 792.055 6.4187 792.097 6.19903 791.93C5.97937 791.763 5.93694 791.449 6.10428 791.229C7.96858 788.782 10.3284 786.334 13.229 783.893C13.4403 783.715 13.7557 783.742 13.9335 783.954ZM3.99916 795.332C4.24305 795.462 4.33577 795.764 4.20626 796.008C2.50681 799.209 1.65527 802.374 1.51956 805.487C1.50753 805.763 1.27414 805.977 0.998257 805.965C0.722376 805.953 0.508481 805.719 0.520509 805.443C0.663114 802.172 1.55837 798.863 3.32306 795.539C3.45257 795.295 3.75527 795.203 3.99916 795.332ZM1.30542 810.013C1.57657 809.961 1.83876 810.139 1.89105 810.41C2.49247 813.529 3.77142 816.603 5.61101 819.61C5.75509 819.846 5.68093 820.154 5.44536 820.298C5.20978 820.442 4.90201 820.368 4.75793 820.132C2.86844 817.043 1.53741 813.857 0.909137 810.599C0.856852 810.328 1.03428 810.066 1.30542 810.013ZM7.77719 823.616C7.99372 823.445 8.30818 823.482 8.47955 823.698C10.4534 826.192 12.7874 828.626 15.4048 830.984C15.6099 831.169 15.6263 831.486 15.4415 831.691C15.2566 831.896 14.9404 831.912 14.7353 831.727C12.0844 829.338 9.71009 826.864 7.69542 824.319C7.52405 824.102 7.56066 823.788 7.77719 823.616ZM18.5551 834.325C18.7273 834.109 19.0419 834.074 19.2578 834.246C21.8145 836.285 24.5656 838.258 27.455 840.153C27.6859 840.305 27.7502 840.615 27.5987 840.846C27.4472 841.077 27.1373 841.141 26.9064 840.99C23.9948 839.079 21.2183 837.089 18.6342 835.028C18.4183 834.855 18.3829 834.541 18.5551 834.325ZM31.0476 843.016C31.1904 842.78 31.4978 842.704 31.7341 842.847C34.5918 844.574 37.5485 846.227 40.5557 847.797C40.8005 847.925 40.8953 848.227 40.7675 848.472C40.6397 848.717 40.3376 848.812 40.0928 848.684C37.0689 847.105 34.0939 845.442 31.2169 843.703C30.9805 843.56 30.9048 843.252 31.0476 843.016ZM44.4048 850.307C44.5259 850.059 44.8252 849.956 45.0734 850.077C48.1327 851.57 51.2182 852.975 54.2805 854.283C54.5344 854.391 54.6523 854.685 54.5439 854.939C54.4354 855.193 54.1416 855.311 53.8876 855.202C50.8108 853.888 47.7101 852.477 44.6349 850.976C44.3867 850.855 44.2837 850.556 44.4048 850.307ZM58.3081 856.494C58.4105 856.237 58.7013 856.112 58.9578 856.214C60.5438 856.847 62.1164 857.452 63.6685 858.028C65.2624 858.544 66.7654 859.163 68.1818 859.877C68.4284 860.001 68.5276 860.302 68.4034 860.548C68.2792 860.795 67.9785 860.894 67.7319 860.77C66.3586 860.078 64.8995 859.477 63.3498 858.976C63.3402 858.973 63.3308 858.969 63.3215 858.966C61.7616 858.387 60.1811 857.779 58.5873 857.143C58.3308 857.041 58.2058 856.75 58.3081 856.494ZM71.6593 862.53C71.8214 862.307 72.1341 862.257 72.3576 862.419C75.0353 864.36 77.3247 866.683 79.2738 869.279C79.4396 869.5 79.395 869.813 79.1742 869.979C78.9534 870.145 78.64 870.1 78.4741 869.879C76.5791 867.356 74.3597 865.105 71.7707 863.228C71.5471 863.066 71.4973 862.754 71.6593 862.53ZM81.262 873.169C81.5018 873.032 81.8072 873.116 81.9441 873.355C83.5356 876.143 84.8233 879.14 85.8536 882.245C85.9406 882.508 85.7986 882.791 85.5365 882.878C85.2744 882.964 84.9914 882.822 84.9045 882.56C83.8918 879.508 82.6296 876.573 81.0757 873.851C80.9388 873.611 81.0222 873.306 81.262 873.169ZM86.5908 886.543C86.8589 886.477 87.1299 886.641 87.1961 886.909C87.9749 890.061 88.5252 893.272 88.8905 896.447C88.9221 896.721 88.7253 896.969 88.451 897.001C88.1766 897.033 87.9286 896.836 87.8971 896.561C87.536 893.423 86.9926 890.254 86.2253 887.149C86.1591 886.88 86.3227 886.609 86.5908 886.543ZM88.7822 900.802C89.0579 900.785 89.2948 900.995 89.3114 901.271C89.5144 904.634 89.5274 907.899 89.4048 910.944C89.3937 911.22 89.161 911.435 88.8851 911.424C88.6091 911.412 88.3945 911.18 88.4056 910.904C88.527 907.89 88.514 904.659 88.3133 901.331C88.2966 901.056 88.5066 900.819 88.7822 900.802ZM88.634 915.234C88.9089 915.259 89.1112 915.503 89.0857 915.778C88.9264 917.497 88.7261 919.106 88.4976 920.577C88.4553 920.85 88.1997 921.037 87.9268 920.994C87.6539 920.952 87.4671 920.696 87.5095 920.423C87.7346 918.974 87.9324 917.385 88.09 915.685C88.1154 915.41 88.359 915.208 88.634 915.234ZM63.9792 561.846C64.0646 562.108 63.9209 562.39 63.6583 562.476C61.9795 563.021 60.3404 563.569 58.7402 564.118C58.4789 564.207 58.1946 564.068 58.105 563.807C58.0154 563.546 58.1545 563.261 58.4157 563.172C60.0212 562.621 61.6654 562.072 63.3491 561.525C63.6118 561.439 63.8939 561.583 63.9792 561.846ZM54.3556 565.128C54.4496 565.388 54.3154 565.674 54.0558 565.768C50.7311 566.973 47.5891 568.183 44.6229 569.399C44.3674 569.504 44.0754 569.382 43.9707 569.126C43.8659 568.871 43.9881 568.579 44.2437 568.474C47.2235 567.252 50.3785 566.037 53.7152 564.828C53.9748 564.734 54.2616 564.868 54.3556 565.128ZM40.1281 570.758C40.2394 571.01 40.1247 571.305 39.872 571.417C36.6043 572.855 33.5757 574.3 30.7751 575.749C30.5299 575.876 30.2282 575.78 30.1013 575.534C29.9744 575.289 30.0704 574.988 30.3156 574.861C33.1365 573.401 36.184 571.948 39.469 570.501C39.7218 570.39 40.0168 570.505 40.1281 570.758ZM26.4978 577.488C26.6345 577.728 26.5508 578.034 26.3109 578.17C23.1684 579.96 20.3634 581.755 17.8745 583.549C17.6505 583.71 17.338 583.66 17.1765 583.436C17.015 583.212 17.0657 582.899 17.2897 582.738C19.8109 580.92 22.6464 579.107 25.8159 577.301C26.0558 577.165 26.3611 577.249 26.4978 577.488ZM13.9335 585.954C14.1113 586.165 14.0842 586.48 13.8729 586.658C11.0191 589.06 8.71271 591.455 6.89976 593.835C6.73243 594.055 6.4187 594.097 6.19903 593.93C5.97937 593.763 5.93694 593.449 6.10428 593.229C7.96858 590.782 10.3284 588.334 13.229 585.893C13.4403 585.715 13.7557 585.742 13.9335 585.954ZM3.99916 597.332C4.24305 597.462 4.33577 597.764 4.20626 598.008C2.50681 601.209 1.65527 604.374 1.51956 607.487C1.50753 607.763 1.27414 607.977 0.998257 607.965C0.722376 607.953 0.508481 607.719 0.520509 607.443C0.663114 604.172 1.55837 600.863 3.32306 597.539C3.45257 597.295 3.75527 597.203 3.99916 597.332ZM1.30542 612.014C1.57657 611.961 1.83876 612.139 1.89105 612.41C2.49247 615.529 3.77142 618.603 5.61101 621.61C5.75509 621.846 5.68093 622.154 5.44536 622.298C5.20978 622.442 4.90201 622.368 4.75793 622.132C2.86844 619.043 1.53741 615.857 0.909137 612.599C0.856852 612.328 1.03428 612.066 1.30542 612.014ZM7.77719 625.616C7.99372 625.445 8.30818 625.482 8.47955 625.698C10.4534 628.192 12.7874 630.626 15.4048 632.985C15.6099 633.169 15.6263 633.486 15.4415 633.691C15.2566 633.896 14.9404 633.912 14.7353 633.727C12.0844 631.338 9.71009 628.864 7.69542 626.319C7.52405 626.102 7.56066 625.788 7.77719 625.616ZM18.5551 636.325C18.7273 636.109 19.0419 636.074 19.2578 636.246C21.8145 638.285 24.5656 640.258 27.455 642.153C27.6859 642.305 27.7502 642.615 27.5987 642.846C27.4472 643.077 27.1373 643.141 26.9064 642.99C23.9948 641.079 21.2183 639.089 18.6342 637.028C18.4183 636.855 18.3829 636.541 18.5551 636.325ZM31.0476 645.016C31.1904 644.78 31.4978 644.704 31.7341 644.847C34.5918 646.574 37.5485 648.227 40.5557 649.797C40.8005 649.925 40.8953 650.227 40.7675 650.472C40.6397 650.717 40.3376 650.812 40.0928 650.684C37.0689 649.105 34.0939 647.442 31.2169 645.703C30.9805 645.56 30.9048 645.252 31.0476 645.016ZM44.4048 652.308C44.5259 652.059 44.8252 651.956 45.0734 652.077C48.1327 653.57 51.2182 654.975 54.2805 656.283C54.5344 656.391 54.6523 656.685 54.5439 656.939C54.4354 657.193 54.1416 657.311 53.8876 657.202C50.8108 655.888 47.7101 654.477 44.6349 652.976C44.3867 652.855 44.2837 652.556 44.4048 652.308ZM58.3081 658.494C58.4105 658.237 58.7013 658.112 58.9578 658.214C60.5469 658.848 62.1226 659.454 63.6776 660.031C63.9365 660.127 64.0686 660.415 63.9725 660.674C63.8764 660.933 63.5887 661.065 63.3298 660.969C61.7672 660.389 60.184 659.78 58.5873 659.143C58.3308 659.041 58.2058 658.75 58.3081 658.494ZM64.5245 660.846C64.4391 661.108 64.5828 661.39 64.8454 661.476C66.5242 662.021 68.1633 662.569 69.7636 663.117C70.0248 663.207 70.3091 663.068 70.3987 662.807C70.4883 662.546 70.3492 662.261 70.088 662.172C68.4825 661.621 66.8383 661.072 65.1546 660.525C64.892 660.439 64.6099 660.583 64.5245 660.846ZM74.1481 664.128C74.0541 664.388 74.1883 664.674 74.4479 664.768C77.7726 665.973 80.9146 667.183 83.8808 668.399C84.1363 668.504 84.4283 668.382 84.5331 668.126C84.6378 667.871 84.5156 667.579 84.2601 667.474C81.2802 666.252 78.1252 665.037 74.7885 663.828C74.5289 663.734 74.2422 663.868 74.1481 664.128ZM88.3756 669.758C88.2643 670.01 88.379 670.305 88.6318 670.417C91.8994 671.855 94.928 673.3 97.7286 674.749C97.9739 674.876 98.2755 674.78 98.4024 674.534C98.5293 674.289 98.4333 673.987 98.1881 673.861C95.3672 672.401 92.3197 670.948 89.0347 669.501C88.7819 669.39 88.4869 669.505 88.3756 669.758ZM102.006 676.488C101.869 676.728 101.953 677.034 102.193 677.17C105.335 678.96 108.14 680.755 110.629 682.549C110.853 682.71 111.166 682.66 111.327 682.436C111.489 682.212 111.438 681.899 111.214 681.738C108.693 679.92 105.857 678.107 102.688 676.301C102.448 676.165 102.143 676.248 102.006 676.488ZM114.57 684.954C114.392 685.165 114.42 685.48 114.631 685.658C117.485 688.06 119.791 690.455 121.604 692.835C121.771 693.055 122.085 693.097 122.305 692.93C122.524 692.763 122.567 692.449 122.399 692.229C120.535 689.782 118.175 687.334 115.275 684.893C115.063 684.715 114.748 684.742 114.57 684.954ZM124.505 696.332C124.261 696.462 124.168 696.764 124.297 697.008C125.997 700.209 126.848 703.374 126.984 706.487C126.996 706.763 127.23 706.977 127.505 706.965C127.781 706.953 127.995 706.719 127.983 706.443C127.841 703.172 126.945 699.863 125.181 696.539C125.051 696.295 124.748 696.203 124.505 696.332ZM127.198 711.013C126.927 710.961 126.665 711.139 126.613 711.41C126.011 714.529 124.732 717.603 122.893 720.61C122.749 720.846 122.823 721.154 123.058 721.298C123.294 721.442 123.602 721.368 123.746 721.132C125.635 718.043 126.966 714.857 127.595 711.599C127.647 711.328 127.469 711.066 127.198 711.013ZM120.727 724.616C120.51 724.445 120.196 724.482 120.024 724.698C118.05 727.192 115.716 729.626 113.099 731.984C112.894 732.169 112.877 732.486 113.062 732.691C113.247 732.896 113.563 732.912 113.768 732.727C116.419 730.338 118.794 727.864 120.808 725.319C120.98 725.102 120.943 724.788 120.727 724.616ZM109.949 735.325C109.776 735.109 109.462 735.074 109.246 735.246C106.689 737.285 103.938 739.258 101.049 741.153C100.818 741.305 100.753 741.615 100.905 741.846C101.056 742.077 101.366 742.141 101.597 741.99C104.509 740.079 107.285 738.089 109.869 736.028C110.085 735.855 110.121 735.541 109.949 735.325ZM97.4561 744.016C97.3133 743.78 97.0059 743.704 96.7696 743.847C93.9119 745.574 90.9553 747.227 87.948 748.797C87.7032 748.925 87.6084 749.227 87.7362 749.472C87.864 749.717 88.1661 749.812 88.4109 749.684C91.4348 748.105 94.4098 746.442 97.2868 744.703C97.5232 744.56 97.599 744.252 97.4561 744.016ZM84.0989 751.307C83.9778 751.059 83.6785 750.956 83.4303 751.077C80.371 752.57 77.2855 753.975 74.2233 755.283C73.9693 755.391 73.8514 755.685 73.9599 755.939C74.0683 756.193 74.3621 756.311 74.6161 756.202C77.6929 754.888 80.7936 753.477 83.8688 751.976C84.117 751.855 84.22 751.556 84.0989 751.307ZM70.1956 757.494C70.0932 757.237 69.8024 757.112 69.5459 757.214C67.9568 757.848 66.3811 758.454 64.8261 759.031C64.5672 759.127 64.4352 759.415 64.5312 759.674C64.6273 759.933 64.915 760.065 65.1739 759.969C66.7365 759.389 68.3198 758.78 69.9164 758.143C70.1729 758.041 70.2979 757.75 70.1956 757.494ZM64.8454 265.476C64.5828 265.39 64.4391 265.108 64.5245 264.846C64.6099 264.583 64.892 264.439 65.1546 264.525C66.8383 265.072 68.4825 265.621 70.088 266.172C70.3492 266.261 70.4883 266.546 70.3987 266.807C70.3091 267.068 70.0248 267.207 69.7636 267.118C68.1633 266.569 66.5242 266.021 64.8454 265.476ZM74.4479 268.768C74.1883 268.674 74.0541 268.387 74.1481 268.128C74.2422 267.868 74.5289 267.734 74.7885 267.828C78.1252 269.037 81.2802 270.252 84.2601 271.474C84.5156 271.579 84.6378 271.871 84.5331 272.126C84.4283 272.382 84.1363 272.504 83.8808 272.399C80.9146 271.183 77.7726 269.973 74.4479 268.768ZM88.6318 274.417C88.379 274.305 88.2643 274.01 88.3756 273.758C88.4869 273.505 88.7819 273.39 89.0347 273.501C92.3197 274.948 95.3672 276.401 98.1881 277.861C98.4333 277.988 98.5293 278.289 98.4024 278.534C98.2755 278.78 97.9739 278.876 97.7286 278.749C94.928 277.3 91.8994 275.855 88.6318 274.417ZM102.193 281.17C101.953 281.034 101.869 280.728 102.006 280.488C102.143 280.248 102.448 280.165 102.688 280.301C105.857 282.107 108.693 283.92 111.214 285.738C111.438 285.899 111.489 286.212 111.327 286.436C111.166 286.66 110.853 286.71 110.629 286.549C108.14 284.755 105.335 282.96 102.193 281.17ZM114.631 289.658C114.42 289.48 114.392 289.165 114.57 288.954C114.748 288.742 115.063 288.715 115.275 288.893C118.175 291.334 120.535 293.782 122.399 296.229C122.567 296.449 122.524 296.763 122.305 296.93C122.085 297.097 121.771 297.055 121.604 296.835C119.791 294.455 117.485 292.06 114.631 289.658ZM124.297 301.008C124.168 300.764 124.261 300.462 124.505 300.332C124.748 300.203 125.051 300.295 125.181 300.539C126.945 303.863 127.841 307.172 127.983 310.443C127.995 310.719 127.781 310.953 127.505 310.965C127.23 310.977 126.996 310.763 126.984 310.487C126.848 307.374 125.997 304.209 124.297 301.008ZM126.613 315.41C126.665 315.139 126.927 314.961 127.198 315.014C127.469 315.066 127.647 315.328 127.595 315.599C126.966 318.857 125.635 322.043 123.746 325.132C123.602 325.368 123.294 325.442 123.058 325.298C122.823 325.154 122.749 324.846 122.893 324.61C124.732 321.603 126.011 318.529 126.613 315.41ZM120.024 328.698C120.196 328.482 120.51 328.445 120.727 328.616C120.943 328.788 120.98 329.102 120.808 329.319C118.794 331.864 116.419 334.338 113.768 336.727C113.563 336.912 113.247 336.896 113.062 336.691C112.877 336.486 112.894 336.169 113.099 335.985C115.716 333.626 118.05 331.192 120.024 328.698ZM109.246 339.246C109.462 339.074 109.776 339.109 109.949 339.325C110.121 339.541 110.085 339.855 109.869 340.028C107.285 342.089 104.509 344.079 101.597 345.99C101.366 346.141 101.056 346.077 100.905 345.846C100.753 345.615 100.818 345.305 101.049 345.153C103.938 343.258 106.689 341.285 109.246 339.246ZM96.7696 347.847C97.0059 347.704 97.3133 347.78 97.4561 348.016C97.599 348.252 97.5232 348.56 97.2868 348.703C94.4098 350.442 91.4348 352.105 88.4109 353.684C88.1661 353.812 87.864 353.717 87.7362 353.472C87.6084 353.227 87.7032 352.925 87.948 352.797C90.9553 351.227 93.9119 349.574 96.7696 347.847ZM83.4303 355.077C83.6785 354.956 83.9778 355.059 84.0989 355.308C84.22 355.556 84.117 355.855 83.8688 355.976C80.7936 357.477 77.6929 358.888 74.6161 360.202C74.3621 360.311 74.0683 360.193 73.9599 359.939C73.8514 359.685 73.9693 359.391 74.2233 359.283C77.2855 357.975 80.371 356.57 83.4303 355.077ZM69.5459 361.214C69.8024 361.112 70.0932 361.237 70.1956 361.494C70.2979 361.75 70.1729 362.041 69.9164 362.143C68.3198 362.78 66.7365 363.389 65.1739 363.969C64.915 364.065 64.6273 363.933 64.5312 363.674C64.4352 363.415 64.5672 363.127 64.8261 363.031C66.3811 362.454 67.9568 361.848 69.5459 361.214ZM64.5245 462.846C64.4391 463.108 64.5828 463.39 64.8454 463.476C66.5242 464.021 68.1633 464.569 69.7636 465.118C70.0248 465.207 70.3091 465.068 70.3987 464.807C70.4883 464.546 70.3492 464.261 70.088 464.172C68.4825 463.621 66.8383 463.072 65.1546 462.525C64.892 462.439 64.6099 462.583 64.5245 462.846ZM74.1481 466.128C74.0541 466.388 74.1883 466.674 74.4479 466.768C77.7726 467.973 80.9146 469.183 83.8808 470.399C84.1363 470.504 84.4283 470.382 84.5331 470.126C84.6378 469.871 84.5156 469.579 84.2601 469.474C81.2802 468.252 78.1252 467.037 74.7885 465.828C74.5289 465.734 74.2422 465.868 74.1481 466.128ZM88.3756 471.758C88.2643 472.01 88.379 472.305 88.6318 472.417C91.8994 473.855 94.928 475.3 97.7286 476.749C97.9739 476.876 98.2755 476.78 98.4024 476.534C98.5293 476.289 98.4333 475.988 98.1881 475.861C95.3672 474.401 92.3197 472.948 89.0347 471.501C88.7819 471.39 88.4869 471.505 88.3756 471.758ZM102.006 478.488C101.869 478.728 101.953 479.034 102.193 479.17C105.335 480.96 108.14 482.755 110.629 484.549C110.853 484.71 111.166 484.66 111.327 484.436C111.489 484.212 111.438 483.899 111.214 483.738C108.693 481.92 105.857 480.107 102.688 478.301C102.448 478.165 102.143 478.249 102.006 478.488ZM114.57 486.954C114.392 487.165 114.42 487.48 114.631 487.658C117.485 490.06 119.791 492.455 121.604 494.835C121.771 495.055 122.085 495.097 122.305 494.93C122.524 494.763 122.567 494.449 122.399 494.229C120.535 491.782 118.175 489.334 115.275 486.893C115.063 486.715 114.748 486.743 114.57 486.954ZM124.505 498.332C124.261 498.462 124.168 498.764 124.297 499.008C125.997 502.209 126.848 505.374 126.984 508.487C126.996 508.763 127.23 508.977 127.505 508.965C127.781 508.953 127.995 508.719 127.983 508.443C127.841 505.172 126.945 501.863 125.181 498.539C125.051 498.295 124.748 498.203 124.505 498.332ZM127.198 513.014C126.927 512.961 126.665 513.139 126.613 513.41C126.011 516.529 124.732 519.603 122.893 522.61C122.749 522.846 122.823 523.154 123.058 523.298C123.294 523.442 123.602 523.368 123.746 523.132C125.635 520.043 126.966 516.857 127.595 513.599C127.647 513.328 127.469 513.066 127.198 513.014ZM120.727 526.616C120.51 526.445 120.196 526.482 120.024 526.698C118.05 529.192 115.716 531.626 113.099 533.985C112.894 534.169 112.877 534.486 113.062 534.691C113.247 534.896 113.563 534.912 113.768 534.727C116.419 532.338 118.794 529.864 120.808 527.319C120.98 527.102 120.943 526.788 120.727 526.616ZM109.949 537.325C109.776 537.109 109.462 537.074 109.246 537.246C106.689 539.285 103.938 541.258 101.049 543.153C100.818 543.305 100.753 543.615 100.905 543.846C101.056 544.077 101.366 544.141 101.597 543.99C104.509 542.079 107.285 540.089 109.869 538.028C110.085 537.855 110.121 537.541 109.949 537.325ZM97.4561 546.016C97.3133 545.78 97.0059 545.704 96.7696 545.847C93.9119 547.574 90.9553 549.227 87.948 550.797C87.7032 550.925 87.6084 551.227 87.7362 551.472C87.864 551.717 88.1661 551.812 88.4109 551.684C91.4348 550.105 94.4098 548.442 97.2868 546.703C97.5232 546.56 97.599 546.252 97.4561 546.016ZM84.0989 553.308C83.9778 553.059 83.6785 552.956 83.4303 553.077C80.371 554.57 77.2855 555.975 74.2233 557.283C73.9693 557.391 73.8514 557.685 73.9599 557.939C74.0683 558.193 74.3621 558.311 74.6161 558.202C77.6929 556.888 80.7936 555.477 83.8688 553.976C84.117 553.855 84.22 553.556 84.0989 553.308ZM70.1956 559.494C70.0932 559.237 69.8024 559.112 69.5459 559.214C67.9568 559.848 66.3811 560.454 64.8261 561.031C64.5672 561.127 64.4352 561.415 64.5312 561.674C64.6273 561.933 64.915 562.065 65.1739 561.969C66.7365 561.389 68.3198 560.78 69.9164 560.143C70.1729 560.041 70.2979 559.75 70.1956 559.494Z" fill="#8250ED"/>
<path d="M63.5 66.5C53 62 38.5 43.5 38 20" stroke="#8250ED" stroke-miterlimit="16" stroke-linecap="round" stroke-dasharray="10 5"/>
<path d="M38 19V1" stroke="#8250ED" stroke-miterlimit="16" stroke-linecap="round" stroke-dasharray="10 5"/>
</svg>
